<svg width="30" height="30" viewBox="0 0 30 30" fill="none" xmlns="http://www.w3.org/2000/svg">
<path d="M8.72735 16.6364C9.32795 16.1859 10.1792 16.3058 10.6322 16.9034L10.6385 16.9115C10.6466 16.9217 10.662 16.9409 10.6846 16.9678C10.7298 17.0217 10.8031 17.1057 10.9029 17.2099C11.1038 17.4195 11.4056 17.7038 11.7965 17.9881C12.5834 18.5604 13.6713 19.0909 15.0001 19.0909C16.3289 19.0909 17.4168 18.5604 18.2037 17.9881C18.5945 17.7038 18.8964 17.4195 19.0972 17.2099C19.1971 17.1057 19.2704 17.0217 19.3156 16.9678C19.3381 16.9409 19.3536 16.9217 19.3617 16.9115L19.368 16.9034C19.821 16.3058 20.6722 16.1859 21.2728 16.6364C21.8753 17.0882 21.9974 17.943 21.5455 18.5455L20.4546 17.7273C21.5455 18.5455 21.5459 18.545 21.5455 18.5455L21.5442 18.5473L21.5426 18.5494L21.5388 18.5543L21.529 18.5671L21.5 18.6043C21.4765 18.634 21.4446 18.6734 21.4046 18.7211C21.3246 18.8164 21.2114 18.9454 21.0663 19.0969C20.7771 19.3987 20.3545 19.7961 19.8078 20.1937C18.7197 20.9851 17.0803 21.8182 15.0001 21.8182C12.9198 21.8182 11.2804 20.9851 10.1923 20.1937C9.64567 19.7961 9.22307 19.3987 8.93387 19.0969C8.78872 18.9454 8.67554 18.8164 8.59557 18.7211C8.55554 18.6734 8.5237 18.634 8.50019 18.6043L8.47114 18.5671L8.46131 18.5543L8.45758 18.5494L8.456 18.5473C8.45567 18.5468 8.45463 18.5455 9.54554 17.7273L8.45463 18.5455C8.00276 17.943 8.12486 17.0882 8.72735 16.6364Z" fill="black"/>
<path d="M9.54545 10.9091C9.54545 10.156 10.156 9.54545 10.9091 9.54545H10.9227C11.6758 9.54545 12.2864 10.156 12.2864 10.9091C12.2864 11.6622 11.6758 12.2727 10.9227 12.2727H10.9091C10.156 12.2727 9.54545 11.6622 9.54545 10.9091Z" fill="black"/>
<path d="M19.0909 9.54545C18.3378 9.54545 17.7273 10.156 17.7273 10.9091C17.7273 11.6622 18.3378 12.2727 19.0909 12.2727H19.1045C19.8577 12.2727 20.4682 11.6622 20.4682 10.9091C20.4682 10.156 19.8577 9.54545 19.1045 9.54545H19.0909Z" fill="black"/>
<path fill-rule="evenodd" clip-rule="evenodd" d="M15 0C6.71573 0 0 6.71573 0 15C0 23.2843 6.71573 30 15 30C23.2843 30 30 23.2843 30 15C30 6.71573 23.2843 0 15 0ZM2.72727 15C2.72727 8.22196 8.22196 2.72727 15 2.72727C21.778 2.72727 27.2727 8.22196 27.2727 15C27.2727 21.778 21.778 27.2727 15 27.2727C8.22196 27.2727 2.72727 21.778 2.72727 15Z" fill="black"/>
</svg>
